<?xml version="1.0" encoding="UTF-8" standalone="no"?>
<!-- Created with Inkscape (http://www.inkscape.org/) -->

<svg
   xmlns:dc="http://purl.org/dc/elements/1.1/"
   xmlns:cc="http://creativecommons.org/ns#"
   xmlns:rdf="http://www.w3.org/1999/02/22-rdf-syntax-ns#"
   xmlns:svg="http://www.w3.org/2000/svg"
   xmlns="http://www.w3.org/2000/svg"
   xmlns:sodipodi="http://sodipodi.sourceforge.net/DTD/sodipodi-0.dtd"
   xmlns:inkscape="http://www.inkscape.org/namespaces/inkscape"
   width="276.70291mm"
   height="213.60324mm"
   viewBox="0 0 276.70291 213.60324"
   version="1.1"
   id="svg6252"
   inkscape:version="0.92.1 r15371"
   sodipodi:docname="hosicon.svg">
  <defs
     id="defs6246">
    <clipPath
       id="clipPath4866"
       clipPathUnits="userSpaceOnUse">
      <path
         style="opacity:1;fill:#cccccc;fill-opacity:1;stroke:#2d2d2d;stroke-width:0.99999994;stroke-miterlimit:4;stroke-dasharray:none;stroke-dashoffset:0;stroke-opacity:1"
         d="m -45.691909,-74.36667 h 25.098132 c 1.559369,0 2.81474,0.896356 2.81474,2.009775 v 31.479914 c 0,1.113393 -1.25537,2.009748 -2.81474,2.009748 h -25.098132 c -1.55937,0 -2.814738,-0.896355 -2.814738,-2.009748 v -31.479914 c 0,-1.113419 1.255368,-2.009775 2.814738,-2.009775 z"
         id="path4868"
         inkscape:connector-curvature="0" />
    </clipPath>
  </defs>
  <sodipodi:namedview
     id="base"
     pagecolor="#ffffff"
     bordercolor="#666666"
     borderopacity="1.0"
     inkscape:pageopacity="0.0"
     inkscape:pageshadow="2"
     inkscape:zoom="0.35"
     inkscape:cx="552.24249"
     inkscape:cy="308.33279"
     inkscape:document-units="mm"
     inkscape:current-layer="g6457"
     showgrid="false"
     fit-margin-top="0"
     fit-margin-left="0"
     fit-margin-right="0"
     fit-margin-bottom="0"
     inkscape:window-width="1366"
     inkscape:window-height="706"
     inkscape:window-x="-8"
     inkscape:window-y="-8"
     inkscape:window-maximized="1" />
  <metadata
     id="metadata6249">
    <rdf:RDF>
      <cc:Work
         rdf:about="">
        <dc:format>image/svg+xml</dc:format>
        <dc:type
           rdf:resource="http://purl.org/dc/dcmitype/StillImage" />
        <dc:title></dc:title>
      </cc:Work>
    </rdf:RDF>
  </metadata>
  <g
     inkscape:label="Layer 1"
     inkscape:groupmode="layer"
     id="layer1"
     transform="translate(168.41475,134.38066)">
    <g
       transform="translate(-143.6525,63.613275)"
       id="layer1-6"
       inkscape:label="Layer 1">
      <g
         transform="matrix(-0.00267436,-0.61186577,0.61186577,-0.00267436,-74.511047,233.95203)"
         id="g5633" />
      <g
         id="g6457">
        <g
           id="g6302"
           transform="matrix(5.8265484,0,0,5.1775588,-50.292184,-1460.0717)">
          <g
             transform="matrix(0.33154883,0,0,0.32578633,160.63068,231.04534)"
             id="g5390">
            <rect
               style="opacity:1;fill:#2d2d2d;fill-opacity:1;stroke:#2d2d2d;stroke-width:0.43742096;stroke-miterlimit:4;stroke-dasharray:none;stroke-dashoffset:0;stroke-opacity:1"
               id="rect5293"
               width="31.876801"
               height="11.538161"
               x="39.243961"
               y="364.15912"
               rx="1.5980705"
               ry="56.628403"
               transform="rotate(90)" />
            <rect
               style="opacity:1;fill:#ffffff;fill-opacity:1;stroke:#2d2d2d;stroke-width:2.00434923;stroke-miterlimit:4;stroke-dasharray:none;stroke-dashoffset:0;stroke-opacity:1"
               id="rect5264"
               width="68.202644"
               height="113.22904"
               x="-404.97684"
               y="47.354782"
               rx="1.5729319"
               ry="57.533432" />
            <rect
               ry="57.533432"
               rx="1.5729318"
               y="127.59183"
               x="-380.35602"
               height="32.291019"
               width="18.961037"
               id="rect5268"
               style="opacity:1;fill:#dceeee;fill-opacity:1;stroke:#000000;stroke-width:0.56437242;stroke-miterlimit:4;stroke-dasharray:none;stroke-dashoffset:0;stroke-opacity:1" />
            <path
               style="opacity:1;fill:#dc0000;fill-opacity:1;stroke:#2d2d2d;stroke-width:1.69217241;stroke-miterlimit:4;stroke-dasharray:none;stroke-dashoffset:0;stroke-opacity:1"
               d="m -375.97622,56.864838 c -0.23561,0 -0.42498,0.189518 -0.42498,0.424975 v 10.626358 h -10.62726 c -0.23535,0 -0.42497,0.189519 -0.42497,0.425001 v 10.202254 c 0,0.23561 0.18952,0.42498 0.42497,0.42498 h 10.62726 v 10.62636 c 0,0.23561 0.18952,0.425 0.42498,0.425 h 10.20138 c 0.23561,0 0.42497,-0.18952 0.42497,-0.425 v -10.62636 h 10.62639 c 0.23561,0 0.42585,-0.18952 0.42585,-0.42498 V 68.341172 c 0,-0.235611 -0.19029,-0.425001 -0.42585,-0.425001 h -10.62639 V 57.289813 c 0,-0.235611 -0.18951,-0.424975 -0.42497,-0.424975 z"
               id="rect4620-7"
               inkscape:connector-curvature="0" />
            <path
               style="opacity:1;fill:#cccccc;fill-opacity:1;stroke:none;stroke-width:3.03644204;stroke-miterlimit:4;stroke-dasharray:none;stroke-dashoffset:0;stroke-opacity:1"
               d="m -342.16762,48.343356 c 1.3391,1.500578 2.31386,6.258108 2.31386,11.937121 v 85.604903 c 0,3.91782 -0.46414,7.39763 -1.19122,9.6744 0.0724,1.07359 0.12697,2.16395 0.16351,3.26442 h 0.91525 c 1.78046,0 3.21396,-5.54795 3.21396,-12.43874 V 60.780548 c 0,-6.890792 -1.4335,-12.437192 -3.21396,-12.437192 z"
               id="path4625-0"
               inkscape:connector-curvature="0"
               sodipodi:nodetypes="cssccssssc" />
            <path
               sodipodi:nodetypes="cssccssssc"
               inkscape:connector-curvature="0"
               id="path5289"
               d="m -399.19432,48.343356 c -1.3391,1.500578 -2.31386,6.258108 -2.31386,11.937121 v 85.604903 c 0,3.91782 0.46414,7.39763 1.19122,9.6744 -0.0724,1.07359 -0.12697,2.16395 -0.16351,3.26442 h -0.91525 c -1.78046,0 -3.21396,-5.54795 -3.21396,-12.43874 V 60.780548 c 0,-6.890792 1.4335,-12.437192 3.21396,-12.437192 z"
               style="opacity:1;fill:#cccccc;fill-opacity:1;stroke:none;stroke-width:3.03644204;stroke-miterlimit:4;stroke-dasharray:none;stroke-dashoffset:0;stroke-opacity:1" />
            <rect
               style="opacity:1;fill:#000000;fill-opacity:1;stroke:#000000;stroke-width:0.5005607;stroke-miterlimit:4;stroke-dasharray:none;stroke-dashoffset:0;stroke-opacity:1"
               id="rect5266"
               width="37.97123"
               height="4.3413968"
               x="-389.15063"
               y="123.66756"
               rx="1.5729318"
               ry="14.504226" />
            <ellipse
               style="opacity:1;fill:#ffffff;fill-opacity:1;stroke:#ffffff;stroke-width:1.43898499;stroke-miterlimit:4;stroke-dasharray:none;stroke-dashoffset:0;stroke-opacity:1"
               id="path5350"
               cx="-366.73523"
               cy="142.73692"
               rx="2.5605674"
               ry="9.7972221" />
          </g>
          <g
             transform="matrix(0.33149082,0,0,0.33093509,160.60916,230.31703)"
             id="g5372">
            <rect
               ry="56.638313"
               rx="1.5732071"
               y="69.426842"
               x="-465.73233"
               height="91.737617"
               width="55.25745"
               id="rect5297"
               style="opacity:1;fill:#ffffff;fill-opacity:1;stroke:#2d2d2d;stroke-width:1.623914;stroke-miterlimit:4;stroke-dasharray:none;stroke-dashoffset:0;stroke-opacity:1" />
            <path
               sodipodi:nodetypes="cssccssssc"
               inkscape:connector-curvature="0"
               id="path5303"
               d="m -414.84461,70.227777 c 1.08493,1.215761 1.87468,5.070288 1.87468,9.671397 v 69.356676 c 0,3.1742 -0.37605,5.99352 -0.96512,7.83815 0.0587,0.86982 0.10287,1.75322 0.13247,2.64482 h 0.74153 c 1.44252,0 2.60394,-4.49492 2.60394,-10.07781 V 80.304329 c 0,-5.582886 -1.16142,-10.076552 -2.60394,-10.076552 z"
               style="opacity:1;fill:#cccccc;fill-opacity:1;stroke:none;stroke-width:2.46011043;stroke-miterlimit:4;stroke-dasharray:none;stroke-dashoffset:0;stroke-opacity:1" />
            <path
               style="opacity:1;fill:#cccccc;fill-opacity:1;stroke:none;stroke-width:2.46011043;stroke-miterlimit:4;stroke-dasharray:none;stroke-dashoffset:0;stroke-opacity:1"
               d="m -461.04736,70.227777 c -1.08494,1.215761 -1.87468,5.070288 -1.87468,9.671397 v 69.356676 c 0,3.1742 0.37604,5.99352 0.96512,7.83815 -0.0587,0.86982 -0.10287,1.75322 -0.13248,2.64482 h -0.74153 c -1.44252,0 -2.60393,-4.49492 -2.60393,-10.07781 V 80.304329 c 0,-5.582886 1.16141,-10.076552 2.60393,-10.076552 z"
               id="path5305"
               inkscape:connector-curvature="0"
               sodipodi:nodetypes="cssccssssc" />
            <path
               id="rect5313"
               style="opacity:1;fill:#dceeee;fill-opacity:1;stroke:#2d2d2d;stroke-width:1.62039018;stroke-miterlimit:4;stroke-dasharray:none;stroke-dashoffset:0;stroke-opacity:1"
               d="m -423.20065,87.565614 h 5.42509 c 0.70273,0 1.26847,1.78773 1.26847,4.008364 0,2.220633 -0.56574,4.008365 -1.26847,4.008365 h -5.42509 c -0.70274,0 -1.26847,-1.787732 -1.26847,-4.008365 0,-2.220634 0.56573,-4.008364 1.26847,-4.008364 z m -12.15293,0 h 5.4251 c 0.70273,0 1.26846,1.78773 1.26846,4.008364 0,2.220633 -0.56573,4.008365 -1.26846,4.008365 h -5.4251 c -0.70273,0 -1.26847,-1.787732 -1.26847,-4.008365 0,-2.220634 0.56574,-4.008364 1.26847,-4.008364 z m -12.15293,0 h 5.4251 c 0.70273,0 1.26847,1.78773 1.26847,4.008364 0,2.220633 -0.56574,4.008365 -1.26847,4.008365 h -5.4251 c -0.70273,0 -1.26846,-1.787732 -1.26846,-4.008365 0,-2.220634 0.56573,-4.008364 1.26846,-4.008364 z m -12.15292,0 h 5.42509 c 0.70274,0 1.26847,1.78773 1.26847,4.008364 0,2.220633 -0.56573,4.008365 -1.26847,4.008365 h -5.42509 c -0.70274,0 -1.26847,-1.787732 -1.26847,-4.008365 0,-2.220634 0.56573,-4.008364 1.26847,-4.008364 z"
               inkscape:connector-curvature="0" />
            <path
               d="m -423.20065,107.28718 h 5.42509 c 0.70273,0 1.26847,1.78773 1.26847,4.00836 0,2.22064 -0.56574,4.00839 -1.26847,4.00839 h -5.42509 c -0.70274,0 -1.26847,-1.78775 -1.26847,-4.00839 0,-2.22063 0.56573,-4.00836 1.26847,-4.00836 z m -12.15293,0 h 5.4251 c 0.70273,0 1.26846,1.78773 1.26846,4.00836 0,2.22064 -0.56573,4.00839 -1.26846,4.00839 h -5.4251 c -0.70273,0 -1.26847,-1.78775 -1.26847,-4.00839 0,-2.22063 0.56574,-4.00836 1.26847,-4.00836 z m -12.15293,0 h 5.4251 c 0.70273,0 1.26847,1.78773 1.26847,4.00836 0,2.22064 -0.56574,4.00839 -1.26847,4.00839 h -5.4251 c -0.70273,0 -1.26846,-1.78775 -1.26846,-4.00839 0,-2.22063 0.56573,-4.00836 1.26846,-4.00836 z m -12.15292,0 h 5.42509 c 0.70274,0 1.26847,1.78773 1.26847,4.00836 0,2.22064 -0.56573,4.00839 -1.26847,4.00839 h -5.42509 c -0.70274,0 -1.26847,-1.78775 -1.26847,-4.00839 0,-2.22063 0.56573,-4.00836 1.26847,-4.00836 z"
               style="opacity:1;fill:#dceeee;fill-opacity:1;stroke:#2d2d2d;stroke-width:1.62039018;stroke-miterlimit:4;stroke-dasharray:none;stroke-dashoffset:0;stroke-opacity:1"
               id="path5320"
               inkscape:connector-curvature="0" />
            <path
               inkscape:connector-curvature="0"
               id="path5322"
               style="opacity:1;fill:#dceeee;fill-opacity:1;stroke:#2d2d2d;stroke-width:1.62039018;stroke-miterlimit:4;stroke-dasharray:none;stroke-dashoffset:0;stroke-opacity:1"
               d="m -423.20065,127.00873 h 5.42509 c 0.70273,0 1.26847,1.78773 1.26847,4.00838 0,2.22065 -0.56574,4.00839 -1.26847,4.00839 h -5.42509 c -0.70274,0 -1.26847,-1.78774 -1.26847,-4.00839 0,-2.22065 0.56573,-4.00838 1.26847,-4.00838 z m -12.15293,0 h 5.4251 c 0.70273,0 1.26846,1.78773 1.26846,4.00838 0,2.22065 -0.56573,4.00839 -1.26846,4.00839 h -5.4251 c -0.70273,0 -1.26847,-1.78774 -1.26847,-4.00839 0,-2.22065 0.56574,-4.00838 1.26847,-4.00838 z m -12.15293,0 h 5.4251 c 0.70273,0 1.26847,1.78773 1.26847,4.00838 0,2.22065 -0.56574,4.00839 -1.26847,4.00839 h -5.4251 c -0.70273,0 -1.26846,-1.78774 -1.26846,-4.00839 0,-2.22065 0.56573,-4.00838 1.26846,-4.00838 z m -12.15292,0 h 5.42509 c 0.70274,0 1.26847,1.78773 1.26847,4.00838 0,2.22065 -0.56573,4.00839 -1.26847,4.00839 h -5.42509 c -0.70274,0 -1.26847,-1.78774 -1.26847,-4.00839 0,-2.22065 0.56573,-4.00838 1.26847,-4.00838 z" />
          </g>
          <g
             transform="matrix(0.72842531,0,0,1.0212658,1.2035066,-6.0385516)"
             id="g6281">
            <rect
               ry="4.7252789"
               rx="0.52150375"
               y="283.12244"
               x="4.5657339"
               height="1.6677099"
               width="64.79007"
               id="rect5346"
               style="opacity:1;fill:#2d2d2d;fill-opacity:1;stroke:#2d2d2d;stroke-width:0.40525565;stroke-miterlimit:4;stroke-dasharray:none;stroke-dashoffset:0;stroke-opacity:1" />
            <rect
               style="opacity:1;fill:#ffffff;fill-opacity:1;stroke:#000000;stroke-width:0.23921649;stroke-miterlimit:4;stroke-dasharray:none;stroke-dashoffset:0;stroke-opacity:1"
               id="rect5348"
               width="64.956245"
               height="0.57960498"
               x="4.4826488"
               y="283.03949"
               rx="0.52150375"
               ry="4.7252789" />
          </g>
        </g>
      </g>
    </g>
  </g>
</svg>
